<?xml version="1.0" encoding="UTF-8" standalone="no"?>
<!-- Created with Inkscape (http://www.inkscape.org/) -->

<svg
   width="128"
   height="128"
   viewBox="0 0 33.866663 33.866667"
   version="1.1"
   id="svg1"
   inkscape:version="1.4 (86a8ad7, 2024-10-11)"
   sodipodi:docname="logo-icon.svg"
   xmlns:inkscape="http://www.inkscape.org/namespaces/inkscape"
   xmlns:sodipodi="http://sodipodi.sourceforge.net/DTD/sodipodi-0.dtd"
   xmlns="http://www.w3.org/2000/svg"
   xmlns:svg="http://www.w3.org/2000/svg"
   xmlns:rdf="http://www.w3.org/1999/02/22-rdf-syntax-ns#"
   xmlns:cc="http://creativecommons.org/ns#"
   xmlns:dc="http://purl.org/dc/elements/1.1/">
  <defs
     id="defs1" />
  <g
     inkscape:label="Layer 1"
     inkscape:groupmode="layer"
     id="layer1"
     transform="translate(-30.292982,-37.553256)" />
  <g
     id="g1">
    <rect
       style="opacity:0.8;fill:#2ca05a;fill-rule:evenodd;stroke:#2ca05a;stroke-width:1.29696;stroke-dasharray:none;paint-order:stroke fill markers"
       id="rect53"
       width="32.544601"
       height="32.566544"
       x="0.6534906"
       y="0.6434297"
       ry="2.7662702" />
    <path
       id="path54"
       style="opacity:0.9;fill:#f9f9f9;fill-rule:evenodd;stroke:#28220b;stroke-width:1.29696;stroke-linecap:butt;stroke-linejoin:round;stroke-dasharray:none;paint-order:normal"
       d="M 16.954717,0.67193155 1.5050737,16.131778 C 0.9635821,16.67363 0.68651549,17.371331 0.65351056,18.077861 v 0.273992 c 0.0330231,0.706549 0.31005903,1.40444 0.85155864,1.946309 L 13.585315,32.386324 c 0.541501,0.541865 1.238696,0.819344 1.944772,0.852362 h 0.273804 c 0.706076,-0.03303 1.403497,-0.310497 1.944996,-0.852362 L 33.198091,16.926705 V 3.4381971 c 0,-1.5325126 -1.232918,-2.766261 -2.764402,-2.76626555 z" />
    <ellipse
       style="opacity:0.8;fill:none;fill-rule:evenodd;stroke:#000000;stroke-width:1.29696;stroke-dasharray:none;paint-order:normal"
       id="ellipse54"
       cx="27.781216"
       cy="6.0324898"
       rx="1.6883533"
       ry="1.8021245" />
    <path
       style="fill:none;stroke:#000000;stroke-width:0.114384px;stroke-linecap:butt;stroke-linejoin:miter;stroke-opacity:1"
       d="M 33.198091,0.64342805 Z"
       id="path66" />
    <path
       style="fill:#0055d4;stroke:none;stroke-width:0.289769"
       d="m 12.782212,17.068985 -3.994165,3.996858 c -0.084842,0.0849 -0.2224028,0.0849 -0.3072429,-1e-6 l -3.994167,-3.99686 c -0.08484,-0.0849 -0.08484,-0.222553 -4e-7,-0.30745 l 3.994165,-3.996858 c 0.084842,-0.0849 0.2224036,-0.0849 0.3072434,0 l 3.9941669,3.99686 c 0.08484,0.0849 0.08484,0.222554 0,0.307451 z M 11.553239,16.761533 8.7880463,13.994476 c -0.08484,-0.0849 -0.2224034,-0.0849 -0.3072436,0 l -2.7651931,2.767057 c -0.084839,0.0849 -0.084839,0.222553 6e-7,0.30745 l 2.7651924,2.767057 c 0.08484,0.0849 0.2224035,0.0849 0.3072429,1e-6 l 2.7651935,-2.767058 c 0.08484,-0.08489 0.08484,-0.222553 0,-0.30745 z m -1.228977,0.307452 -1.5362178,1.537254 c -0.084839,0.0849 -0.2224028,0.0849 -0.3072429,-10e-7 L 6.9445834,17.068985 c -0.08484,-0.0849 -0.08484,-0.222554 -8e-7,-0.30745 l 1.5362181,-1.537254 c 0.084842,-0.0849 0.2224036,-0.0849 0.3072437,0 l 1.5362176,1.537253 c 0.08484,0.0849 0.08484,0.222554 0,0.307451 z"
       id="path102" />
    <path
       style="fill:#0055d4;stroke:none;stroke-width:0.289769"
       d="m 21.385034,8.460362 -3.994168,3.996861 c -0.08484,0.0849 -0.222403,0.0849 -0.307243,0 L 13.089456,8.4603625 c -0.08484,-0.084897 -0.08484,-0.2225531 0,-0.3074497 l 3.994168,-3.9968613 c 0.08484,-0.084896 0.222403,-0.084897 0.307243,4e-7 l 3.994167,3.99686 c 0.08484,0.084897 0.08484,0.2225536 0,0.3074501 z M 20.156057,8.1529137 17.390865,5.3858568 c -0.08484,-0.084897 -0.222404,-0.084897 -0.307243,-6e-7 l -2.765193,2.7670576 c -0.08484,0.084896 -0.08484,0.2225527 0,0.3074499 l 2.765193,2.7670573 c 0.08484,0.0849 0.222403,0.0849 0.307243,0 l 2.765193,-2.7670573 c 0.08484,-0.084899 0.08484,-0.2225527 -1e-6,-0.30745 z m -1.228972,0.3074487 -1.536218,1.5372539 c -0.08484,0.084899 -0.222404,0.084898 -0.307244,10e-8 L 15.547405,8.4603626 c -0.08484,-0.084897 -0.08484,-0.2225535 0,-0.3074509 l 1.536218,-1.5372538 c 0.08484,-0.084896 0.222403,-0.084897 0.307243,7e-7 l 1.536218,1.5372538 c 0.08484,0.084897 0.08484,0.2225535 1e-6,0.30745 z"
       id="path103" />
    <path
       style="fill:#000000;stroke:none;stroke-width:0.289769"
       d="m 14.011188,23.217998 -1.536218,1.537254 c -0.08484,0.0849 -0.222403,0.0849 -0.307243,-10e-7 l -1.536218,-1.537254 c -0.08484,-0.0849 -0.08484,-0.222553 -10e-7,-0.30745 l 0.307243,-0.30745 c 0.08484,-0.0849 0.222404,-0.0849 0.307244,0 l 0.307244,0.307451 c 0.08484,0.0849 0.222403,0.0849 0.307243,1e-6 l 0.460864,-0.461176 0.460865,0.461176 c 0.08484,0.0849 0.222404,0.0849 0.307243,0 L 13.3967,22.603096 c 0.08484,-0.0849 0.222404,-0.0849 0.307244,0 l 0.307244,0.307451 c 0.08484,0.0849 0.08484,0.222554 0,0.307451 z m -1.228974,-1.229803 -0.460868,0.461178 -0.460865,-0.461176 c -0.08484,-0.0849 -0.08484,-0.222554 -10e-7,-0.307451 l 0.307246,-0.307453 c 0.08484,-0.0849 0.222404,-0.0849 0.307244,0 l 0.307244,0.307451 c 0.08484,0.0849 0.08484,0.222554 0,0.307451 z"
       id="path104" />
    <path
       style="fill:#000000;stroke:none;stroke-width:0.289769"
       d="m 24.457468,12.764674 -1.536218,1.537254 c -0.08484,0.0849 -0.222404,0.0849 -0.307244,0 l -0.307243,-0.307451 c -0.08484,-0.0849 -0.08484,-0.222553 0,-0.307451 l 0.921732,-0.922353 c 0.08484,-0.0849 0.08484,-0.222553 -10e-7,-0.30745 L 22.92125,12.149772 c -0.08484,-0.0849 -0.222403,-0.0849 -0.307242,0 l -0.307243,0.30745 c -0.08484,0.0849 -0.222404,0.0849 -0.307244,0 l -0.307244,-0.307451 c -0.08484,-0.0849 -0.222403,-0.0849 -0.307246,2e-6 l -0.307243,0.30745 c -0.08484,0.0849 -0.222403,0.0849 -0.307244,0 l -0.92173,-0.922352 c -0.08484,-0.0849 -0.08484,-0.222553 0,-0.307451 l 0.307243,-0.30745 c 0.08484,-0.0849 0.222406,-0.0849 0.307246,-2e-6 l 0.307244,0.307451 c 0.08484,0.0849 0.222403,0.0849 0.307243,-10e-7 l 0.307243,-0.30745 c 0.08484,-0.0849 0.08484,-0.222553 0,-0.307449 l -0.307244,-0.307451 c -0.08484,-0.0849 -0.08484,-0.222554 0,-0.3074513 l 0.307243,-0.3074501 c 0.08484,-0.084899 0.222403,-0.084897 0.307243,8e-7 l 0.307244,0.3074509 c 0.08484,0.084898 0.222403,0.084897 0.307243,-8e-7 l 0.307246,-0.3074533 c 0.08484,-0.084896 0.222403,-0.084897 0.307243,8e-7 l 0.307244,0.3074509 c 0.08484,0.084897 0.08484,0.2225531 0,0.3074501 l -0.307246,0.307453 c -0.08484,0.0849 -0.08484,0.222554 0,0.307451 l 0.307244,0.307451 c 0.08484,0.0849 0.222404,0.0849 0.307244,0 l 0.307246,-0.307453 c 0.08484,-0.0849 0.222403,-0.0849 0.307242,0 l 0.307244,0.307451 c 0.08484,0.0849 0.08484,0.222553 1e-6,0.30745 l -0.307246,0.307453 c -0.08484,0.0849 -0.08484,0.222554 0,0.307451 l 0.307243,0.307451 c 0.08484,0.0849 0.08484,0.222554 10e-7,0.30745 z"
       id="path105" />
    <path
       style="fill:#000000;stroke:none;stroke-width:0.289769"
       d="m 26.300931,15.83918 -0.307243,0.307451 c -0.08484,0.0849 -0.222404,0.0849 -0.307244,0 L 25.3792,15.83918 c -0.08484,-0.0849 -0.08484,-0.222554 0,-0.307451 l 0.460864,-0.461175 0.460866,0.461176 c 0.08484,0.0849 0.08484,0.222554 10e-7,0.30745 z m 0.614487,-1.844705 -1.075354,1.076079 -1.075352,-1.076078 c -0.08484,-0.0849 -0.08484,-0.222553 0,-0.307451 l 0.921732,-0.922353 c 0.08484,-0.0849 0.222403,-0.0849 0.307243,1e-6 l 0.921731,0.922352 c 0.08484,0.0849 0.08484,0.222553 0,0.30745 z"
       id="path106" />
    <path
       style="fill:#000000;stroke:none;stroke-width:0.289769"
       d="m 27.529905,17.068983 -0.921732,0.922354 c -0.08484,0.0849 -0.222404,0.0849 -0.307244,0 l -0.307244,-0.307451 c -0.08484,-0.0849 -0.08484,-0.222554 0,-0.307451 l 0.921733,-0.922354 c 0.08484,-0.08489 0.222402,-0.0849 0.307242,1e-6 l 0.307244,0.307451 c 0.08484,0.0849 0.08484,0.222554 1e-6,0.30745 z"
       id="path107" />
    <path
       style="fill:#000000;stroke:none;stroke-width:0.289769"
       d="m 29.373367,16.454081 -0.307246,0.307453 c -0.08484,0.0849 -0.222404,0.0849 -0.307244,0 l -0.307243,-0.30745 c -0.08484,-0.0849 -0.08484,-0.222554 0,-0.307451 L 28.75888,15.83918 c 0.08484,-0.0849 0.222403,-0.0849 0.307243,0 l 0.307243,0.307451 c 0.08484,0.0849 0.08484,0.222553 10e-7,0.30745 z"
       id="path108" />
    <path
       style="fill:#0055d4;stroke:none;stroke-width:0.289769"
       d="m 21.385032,25.677605 -3.994165,3.996858 c -0.08484,0.0849 -0.222403,0.0849 -0.307243,0 l -3.994167,-3.99686 c -0.08484,-0.0849 -0.08484,-0.222554 0,-0.30745 l 3.994165,-3.996858 c 0.08484,-0.0849 0.222403,-0.0849 0.307243,0 l 3.994167,3.996859 c 0.08484,0.0849 0.08484,0.222554 0,0.307451 z m -1.228973,-0.307452 -2.765192,-2.767056 c -0.08484,-0.0849 -0.222404,-0.0849 -0.307244,0 l -2.765193,2.767057 c -0.08484,0.0849 -0.08484,0.222553 1e-6,0.307451 l 2.765191,2.767056 c 0.08484,0.0849 0.222404,0.0849 0.307243,0 l 2.765194,-2.767057 c 0.08484,-0.0849 0.08484,-0.222554 0,-0.307451 z m -1.228976,0.307453 -1.536218,1.537254 c -0.08484,0.0849 -0.222403,0.0849 -0.307243,-1e-6 l -1.536218,-1.537254 c -0.08484,-0.0849 -0.08484,-0.222553 -1e-6,-0.30745 l 1.536218,-1.537254 c 0.08484,-0.0849 0.222403,-0.0849 0.307244,0 l 1.536218,1.537254 c 0.08484,0.0849 0.08484,0.222554 0,0.307451 z"
       id="path109" />
    <path
       style="fill:#000000;stroke:none;stroke-width:0.289769"
       d="m 25.071954,21.988197 -0.307243,0.307451 c -0.08484,0.08489 -0.222403,0.0849 -0.307243,-1e-6 l -0.307244,-0.307451 c -0.08484,-0.0849 -0.222403,-0.0849 -0.307243,0 l -0.307243,0.30745 c -0.08484,0.0849 -0.222403,0.0849 -0.307243,-1e-6 l -0.307243,-0.30745 c -0.08484,-0.0849 -0.08484,-0.222554 -10e-7,-0.30745 l 0.307243,-0.30745 c 0.08484,-0.0849 0.08484,-0.222554 0,-0.307451 L 22.92125,20.758393 c -0.08484,-0.0849 -0.222404,-0.0849 -0.307244,0 l -0.307243,0.30745 c -0.08484,0.0849 -0.222402,0.0849 -0.307243,-1e-6 L 21.07779,20.14349 c -0.08484,-0.0849 -0.08484,-0.222553 -1e-6,-0.30745 l 0.307243,-0.30745 c 0.08484,-0.0849 0.222404,-0.0849 0.307244,0 l 0.307244,0.307451 c 0.08484,0.0849 0.222403,0.0849 0.307243,10e-7 l 0.307243,-0.30745 c 0.08484,-0.0849 0.08484,-0.222556 2e-6,-0.307454 l -0.307244,-0.307451 c -0.08484,-0.0849 -0.08484,-0.222553 0,-0.307451 l 0.307243,-0.30745 c 0.08484,-0.0849 0.222404,-0.0849 0.307244,0 l 0.307244,0.307451 c 0.08484,0.0849 0.222403,0.0849 0.307243,1e-6 l 1.075353,-1.076078 1.075352,1.076077 c 0.08484,0.0849 0.08484,0.222554 1e-6,0.30745 l -0.307246,0.307454 c -0.08484,0.08489 -0.08484,0.222552 1e-6,0.30745 l 0.307243,0.30745 c 0.08484,0.0849 0.08484,0.222553 0,0.307451 l -0.921729,0.92235 c -0.08484,0.0849 -0.08484,0.222554 0,0.307451 l 0.307243,0.307451 c 0.08484,0.0849 0.08484,0.222554 -2e-6,0.307453 z M 24.457469,19.83604 24.150225,19.528589 c -0.08484,-0.0849 -0.222403,-0.0849 -0.307244,0 l -0.307243,0.30745 c -0.08484,0.0849 -0.08484,0.222554 0,0.307451 l 0.307244,0.307451 c 0.08484,0.0849 0.222404,0.0849 0.307244,0 l 0.307243,-0.30745 c 0.08484,-0.0849 0.08484,-0.222554 0,-0.307451 z m 0.614487,-2.767056 -0.460865,0.461176 -0.460866,-0.461177 c -0.08484,-0.0849 -0.222403,-0.0849 -0.307243,0 l -0.307246,0.307453 c -0.08484,0.0849 -0.222403,0.0849 -0.307243,-1e-6 l -0.307243,-0.30745 c -0.08484,-0.0849 -0.08484,-0.222554 -1e-6,-0.30745 l 0.307246,-0.307454 c 0.08484,-0.08489 0.08484,-0.222552 0,-0.30745 l -0.460866,-0.461176 0.460865,-0.461176 c 0.08484,-0.0849 0.222403,-0.0849 0.307243,1e-6 l 1.536218,1.537254 c 0.08484,0.0849 0.08484,0.222554 1e-6,0.30745 z m -2.457948,-1.229804 -0.307246,0.307453 c -0.08484,0.0849 -0.222403,0.0849 -0.307243,-1e-6 l -1.075353,-1.076077 0.460868,-0.461178 c 0.08484,-0.0849 0.222402,-0.0849 0.307243,0 l 1.075352,1.076078 z m 0.614485,7.993721 -0.921729,0.922351 c -0.08484,0.0849 -0.222403,0.0849 -0.307243,-10e-7 l -2.765192,-2.767057 c -0.08484,-0.0849 -0.08484,-0.222553 -10e-7,-0.30745 l 0.307243,-0.30745 c 0.08484,-0.0849 0.08484,-0.222554 0,-0.307451 l -0.307243,-0.30745 c -0.08484,-0.0849 -0.222404,-0.0849 -0.307244,0 l -0.307243,0.30745 c -0.08484,0.0849 -0.222402,0.0849 -0.307243,-1e-6 L 16.77638,19.528588 c -0.08484,-0.0849 -0.08484,-0.222553 -1e-6,-0.30745 l 0.307243,-0.30745 c 0.08484,-0.0849 0.08484,-0.222553 0,-0.307451 l -0.307243,-0.307451 c -0.08484,-0.0849 -0.222403,-0.0849 -0.307243,1e-6 l -1.536218,1.537254 c -0.08484,0.0849 -0.222403,0.0849 -0.307243,-1e-6 l -0.460866,-0.461176 0.460864,-0.461175 c 0.08484,-0.0849 0.08484,-0.222554 0,-0.307451 l -0.307244,-0.307451 c -0.08484,-0.0849 -0.222403,-0.0849 -0.307243,0 l -0.460865,0.461175 -0.460864,-0.461176 c -0.08484,-0.0849 -0.08484,-0.222553 -10e-7,-0.30745 l 1.68984,-1.690979 0.460865,0.461176 c 0.08484,0.0849 0.08484,0.222553 0,0.30745 l -0.307243,0.30745 c -0.08484,0.0849 -0.08484,0.222553 0,0.307451 l 0.307244,0.30745 c 0.08484,0.0849 0.222404,0.0849 0.307243,1e-6 l 0.921729,-0.92235 c 0.08484,-0.0849 0.222404,-0.0849 0.307244,0 l 0.307244,0.307451 c 0.08484,0.0849 0.222403,0.0849 0.307246,-3e-6 l 0.921729,-0.92235 c 0.08484,-0.0849 0.08484,-0.222554 0,-0.307451 l -0.307244,-0.307451 c -0.08484,-0.0849 -0.222404,-0.0849 -0.307244,0 l -0.307243,0.30745 c -0.08484,0.0849 -0.222403,0.0849 -0.307243,0 l -0.92173,-0.922352 c -0.08484,-0.0849 -0.08484,-0.222554 -10e-7,-0.307451 l 0.307243,-0.30745 c 0.08484,-0.0849 0.222403,-0.0849 0.307244,0 l 0.307243,0.307451 c 0.08484,0.0849 0.222403,0.0849 0.307243,0 l 0.307243,-0.30745 c 0.08484,-0.0849 0.08484,-0.222556 3e-6,-0.307452 l -0.307244,-0.307451 c -0.08484,-0.0849 -0.08484,-0.222554 0,-0.307451 l 0.307243,-0.30745 c 0.08484,-0.0849 0.222404,-0.0849 0.307244,0 l 0.307244,0.30745 c 0.08484,0.0849 0.222402,0.0849 0.307242,0 l 0.460865,-0.461175 0.460865,0.461176 c 0.08484,0.0849 0.222404,0.0849 0.307243,1e-6 l 0.307246,-0.307453 c 0.08484,-0.0849 0.222403,-0.0849 0.307243,1e-6 l 0.307244,0.30745 c 0.08484,0.0849 0.08484,0.222554 1e-6,0.307451 l -0.307246,0.307453 c -0.08484,0.0849 -0.08484,0.222553 0,0.307449 l 0.460865,0.461177 -1.07535,1.076076 c -0.08484,0.0849 -0.08484,0.222553 0,0.30745 l 1.075352,1.076078 -0.614488,0.614903 -1.075353,-1.076078 c -0.08484,-0.0849 -0.222403,-0.0849 -0.307244,0 l -0.921728,0.92235 c -0.08484,0.0849 -0.08484,0.222556 -3e-6,0.307454 l 0.921731,0.922352 c 0.08484,0.0849 0.222403,0.0849 0.307246,-3e-6 l 1.075351,-1.076075 0.460865,0.461176 c 0.08484,0.0849 0.08484,0.222554 0,0.307451 l -0.921729,0.92235 c -0.08484,0.0849 -0.08484,0.222556 -2e-6,0.307454 l 0.92173,0.922352 c 0.08484,0.0849 0.08484,0.222553 0,0.307451 l -0.307242,0.30745 c -0.08484,0.08489 -0.08484,0.222552 0,0.307449 l 1.536218,1.537254 c 0.08484,0.0849 0.222403,0.0849 0.307243,1e-6 L 22.614006,23.218 c 0.08484,-0.0849 0.222403,-0.0849 0.307243,0 l 0.307244,0.30745 c 0.08484,0.0849 0.08484,0.222554 0,0.307451 z m -1.228973,-6.149016 -0.307243,0.30745 c -0.08484,0.0849 -0.222403,0.0849 -0.307243,0 l -0.460866,-0.461176 0.460865,-0.461176 c 0.08484,-0.08489 0.222403,-0.0849 0.307244,0 l 0.307243,0.307451 c 0.08484,0.0849 0.08484,0.222554 0,0.307451 z m -7.373848,3.689411 -0.307243,0.30745 c -0.08484,0.08489 -0.222403,0.0849 -0.307243,-10e-7 l -1.536218,-1.537254 c -0.08484,-0.0849 -0.222403,-0.0849 -0.307243,0 l -2.150704,2.152154 c -0.084842,0.0849 -0.2224033,0.0849 -0.3072427,0 L 9.4025346,21.988194 c -0.08484,-0.0849 -0.08484,-0.222553 -8e-7,-0.30745 L 12.167724,18.91369 c 0.08484,-0.0849 0.222403,-0.0849 0.307243,0 l 0.307244,0.307451 c 0.08484,0.0849 0.222403,0.0849 0.307246,-4e-6 l 0.460864,-0.461175 0.614488,0.614902 -0.460865,0.461175 c -0.08484,0.0849 -0.08484,0.222556 -2e-6,0.307454 l 1.075352,1.076077 z m 4.9159,-6.456468 -0.307244,-0.307451 c -0.08484,-0.0849 -0.222404,-0.0849 -0.307244,0 l -0.307243,0.307451 c -0.08484,0.0849 -0.08484,0.222553 0,0.307451 l 0.307244,0.30745 c 0.08484,0.0849 0.222404,0.0849 0.307244,0 l 0.307243,-0.30745 c 0.08484,-0.08489 0.08484,-0.222553 0,-0.307451 z m 0,-2.152156 -0.460867,0.461178 -0.460865,-0.461176 c -0.08484,-0.0849 -0.08484,-0.222553 -1e-6,-0.30745 l 0.307246,-0.307453 c 0.08484,-0.0849 0.222403,-0.0849 0.307243,1e-6 l 0.307244,0.307451 c 0.08484,0.0849 0.08484,0.222552 0,0.307449 z m -4.301412,3.07451 -0.460864,0.461175 -0.614487,-0.614901 0.614486,-0.614901 0.460865,0.461176 c 0.08484,0.0849 0.08484,0.222554 0,0.307451 z m 1.228975,4.919212 -0.921729,0.92235 c -0.08484,0.0849 -0.222406,0.0849 -0.307246,2e-6 l -0.460866,-0.461176 1.075353,-1.076078 c 0.08484,-0.0849 0.222404,-0.0849 0.307244,0 l 0.307244,0.307451 c 0.08484,0.0849 0.08484,0.222553 0,0.307451 z m -1.228973,-6.149017 -0.460867,0.461178 -0.460866,-0.461176 c -0.08484,-0.0849 -0.08484,-0.222553 3e-6,-0.307453 l 0.460865,-0.461176 0.460865,0.461177 c 0.08484,0.0849 0.08484,0.222553 0,0.30745 z m -1.228975,1.229804 -0.307243,0.30745 c -0.08484,0.0849 -0.222403,0.0849 -0.307243,0 L 12.47497,15.224278 c -0.08484,-0.0849 -0.08484,-0.222553 -1e-6,-0.30745 l 0.460865,-0.461176 1.228975,1.229804 z m 1.228974,-2.459606 -0.460864,0.461175 -0.460866,-0.461176 c -0.08484,-0.0849 -0.08484,-0.222553 0,-0.30745 l 0.460864,-0.461176 0.614488,0.614902 z m -1.843463,0.614903 -0.460864,0.461174 -0.460865,-0.461176 c -0.08484,-0.0849 -0.222404,-0.0849 -0.307244,0 l -0.307243,0.307451 c -0.08484,0.0849 -0.222402,0.0849 -0.307243,-10e-7 l -0.307243,-0.307451 c -0.08484,-0.0849 -0.08484,-0.222553 -10e-7,-0.30745 l 1.075351,-1.076076 1.075352,1.076078 c 0.08484,0.0849 0.08484,0.222553 0,0.307451 z m 3.072436,-0.614901 -0.307243,0.30745 c -0.08484,0.0849 -0.222403,0.0849 -0.307243,-1e-6 l -0.460865,-0.461176 0.460864,-0.461175 c 0.08484,-0.0849 0.222406,-0.0849 0.307246,-2e-6 l 0.307244,0.307451 c 0.08484,0.0849 0.08484,0.222553 -3e-6,0.307453 z m -1.228975,-1.229803 -0.460864,0.461174 -1.075352,-1.076077 c -0.08484,-0.0849 -0.222404,-0.0849 -0.307244,0 l -1.075353,1.076078 -0.460866,-0.461176 c -0.08484,-0.0849 -0.222403,-0.0849 -0.307243,0 l -0.921729,0.92235 c -0.08484,0.0849 -0.222403,0.0849 -0.307243,0 l -0.307244,-0.307451 c -0.08484,-0.0849 -0.08484,-0.222553 0,-0.30745 l 0.921729,-0.92235 c 0.08484,-0.0849 0.08484,-0.222554 0,-0.307451 L 10.631506,10.91997 c -0.08484,-0.0849 -0.08484,-0.222553 3e-6,-0.307453 l 1.536215,-1.5372506 c 0.08484,-0.084899 0.222406,-0.0849 0.307246,-2.8e-6 l 2.765192,2.7670564 c 0.08484,0.0849 0.08484,0.222554 -3e-6,0.307454 z m -2.457947,-1.537256 -0.307244,-0.30745 c -0.08484,-0.0849 -0.222403,-0.0849 -0.307243,0 l -0.307243,0.30745 c -0.08484,0.0849 -0.08484,0.222553 0,0.30745 l 0.307244,0.307451 c 0.08484,0.0849 0.222404,0.0849 0.307243,0 l 0.307243,-0.30745 c 0.08484,-0.0849 0.08484,-0.222553 0,-0.307451 z"
       id="path110" />
    <path
       style="fill:#000000;stroke:none;stroke-width:0.289769"
       d="m 28.758879,18.298786 -1.536218,1.537254 c -0.08484,0.0849 -0.222403,0.0849 -0.307243,0 l -0.307244,-0.307451 c -0.08484,-0.0849 -0.08484,-0.222553 0,-0.307451 l 1.536218,-1.537254 c 0.08484,-0.08489 0.222403,-0.0849 0.307243,1e-6 l 0.307244,0.307451 c 0.08484,0.0849 0.08484,0.222554 0,0.30745 z"
       id="path111" />
  </g>
  <metadata
     id="metadata113">
    <rdf:RDF>
      <cc:Work
         rdf:about="">
        <cc:license
           rdf:resource="http://creativecommons.org/licenses/by/4.0/" />
        <dc:date>2024-12-20</dc:date>
        <dc:creator>
          <cc:Agent>
            <dc:title>David Linke</dc:title>
          </cc:Agent>
        </dc:creator>
      </cc:Work>
      <cc:License
         rdf:about="http://creativecommons.org/licenses/by/4.0/">
        <cc:permits
           rdf:resource="http://creativecommons.org/ns#Reproduction" />
        <cc:permits
           rdf:resource="http://creativecommons.org/ns#Distribution" />
        <cc:requires
           rdf:resource="http://creativecommons.org/ns#Notice" />
        <cc:requires
           rdf:resource="http://creativecommons.org/ns#Attribution" />
        <cc:permits
           rdf:resource="http://creativecommons.org/ns#DerivativeWorks" />
      </cc:License>
    </rdf:RDF>
  </metadata>
</svg>
