<?xml version="1.0" encoding="UTF-8" standalone="no"?>
<!-- Created with Inkscape (http://www.inkscape.org/) -->

<svg
   width="171.4012mm"
   height="166.17766mm"
   viewBox="0 0 171.4012 166.17766"
   version="1.1"
   id="svg1"
   inkscape:version="1.4 (86a8ad7, 2024-10-11)"
   sodipodi:docname="logo_design.svg"
   xmlns:inkscape="http://www.inkscape.org/namespaces/inkscape"
   xmlns:sodipodi="http://sodipodi.sourceforge.net/DTD/sodipodi-0.dtd"
   xmlns="http://www.w3.org/2000/svg"
   xmlns:svg="http://www.w3.org/2000/svg">
  <sodipodi:namedview
     id="namedview1"
     pagecolor="#ffffff"
     bordercolor="#666666"
     borderopacity="1.0"
     inkscape:showpageshadow="2"
     inkscape:pageopacity="0.0"
     inkscape:pagecheckerboard="0"
     inkscape:deskcolor="#d1d1d1"
     inkscape:document-units="mm"
     inkscape:zoom="1.2668782"
     inkscape:cx="373.3587"
     inkscape:cy="339.02233"
     inkscape:window-width="1920"
     inkscape:window-height="1137"
     inkscape:window-x="-8"
     inkscape:window-y="-8"
     inkscape:window-maximized="1"
     inkscape:current-layer="svg1"
     showguides="false">
    <sodipodi:guide
       position="68.084116,44.22442"
       orientation="0,86.99989"
       id="guide48"
       inkscape:locked="false" />
    <sodipodi:guide
       position="91.102839,44.22442"
       orientation="86.99989,0"
       id="guide49"
       inkscape:locked="false" />
    <sodipodi:guide
       position="83.041669,19.52701"
       orientation="0,-86.99989"
       id="guide50"
       inkscape:locked="false" />
    <sodipodi:guide
       position="68.084116,21.2057"
       orientation="-86.99989,0"
       id="guide51"
       inkscape:locked="false" />
  </sodipodi:namedview>
  <defs
     id="defs1" />
  <g
     inkscape:label="Layer 1"
     inkscape:groupmode="layer"
     id="layer1"
     transform="translate(-18.721151,-16.169871)" />
  <text
     xml:space="preserve"
     style="font-style:normal;font-variant:normal;font-weight:normal;font-stretch:normal;font-size:21.1667px;line-height:1.25;font-family:'Century Gothic';-inkscape-font-specification:'Century Gothic, Normal';font-variant-ligatures:normal;font-variant-caps:normal;font-variant-numeric:normal;font-variant-east-asian:normal;letter-spacing:-0.00529167px;stroke-width:0.264583"
     x="39.349815"
     y="47.023502"
     id="text38"><tspan
       sodipodi:role="line"
       id="tspan38"
       x="39.349815"
       y="47.023502"><tspan
         style="font-style:normal;font-variant:normal;font-weight:bold;font-stretch:normal;font-family:'Century Gothic';-inkscape-font-specification:'Century Gothic Bold';letter-spacing:-0.00529167px"
         id="tspan36">pid</tspan><tspan
         style="font-style:normal;font-variant:normal;font-weight:bold;font-stretch:normal;font-family:'Century Gothic';-inkscape-font-specification:'Century Gothic Bold';letter-spacing:-0.00529167px;baseline-shift:baseline;fill:#0055d4"
         id="tspan37">4</tspan><tspan
         style="font-style:normal;font-variant:normal;font-weight:bold;font-stretch:normal;font-family:'Century Gothic';-inkscape-font-specification:'Century Gothic Bold';letter-spacing:-0.00529167px;fill:#2ca05a"
         id="tspan39"><tspan
   style="letter-spacing:0px"
   id="tspan101"
   dx="0 -1">ca</tspan>t</tspan></tspan></text>
  <text
     xml:space="preserve"
     style="font-style:normal;font-variant:normal;font-weight:normal;font-stretch:normal;font-size:21.1667px;line-height:1.25;font-family:'Century Gothic';-inkscape-font-specification:'Century Gothic, Normal';font-variant-ligatures:normal;font-variant-caps:normal;font-variant-numeric:normal;font-variant-east-asian:normal;stroke-width:0.264583"
     x="39.349815"
     y="93.708893"
     id="text81"><tspan
       sodipodi:role="line"
       id="tspan81"
       x="39.349815"
       y="93.708893"><tspan
         style="font-style:normal;font-variant:normal;font-weight:bold;font-stretch:normal;font-family:'Century Gothic';-inkscape-font-specification:'Century Gothic Bold'"
         id="tspan78">pid</tspan><tspan
         style="font-style:normal;font-variant:normal;font-weight:bold;font-stretch:normal;font-family:'Century Gothic';-inkscape-font-specification:'Century Gothic Bold';fill:#800000"
         id="tspan79">4</tspan><tspan
         style="font-style:normal;font-variant:normal;font-weight:bold;font-stretch:normal;font-family:'Century Gothic';-inkscape-font-specification:'Century Gothic Bold';fill:#806500;fill-opacity:1"
         id="tspan80"
         dx="0 -1">cat</tspan></tspan></text>
  <g
     id="g2"
     transform="matrix(0.82185632,0,0,0.82185632,2.0614156,17.426432)">
    <rect
       style="opacity:0.8;fill:#ffcc00;fill-rule:evenodd;stroke:#ffcc00;stroke-width:1.13975;stroke-dasharray:none;paint-order:stroke fill markers"
       id="rect81"
       width="28.609341"
       height="28.609341"
       x="-97.252464"
       y="-40.776085"
       ry="2.4301369"
       transform="matrix(0,-1,-1,0,0,0)" />
    <path
       id="path81"
       style="opacity:0.9;fill:#f9f9f9;fill-rule:evenodd;stroke:#28220b;stroke-width:1.13975;stroke-linecap:butt;stroke-linejoin:round;stroke-dasharray:none;paint-order:normal"
       d="m 40.751046,82.922367 -13.5813,13.581488 c -0.476011,0.476015 -1.088932,0.719579 -1.709612,0.748593 h -0.240699 c -0.620694,-0.02903 -1.233783,-0.272567 -1.709809,-0.748589 L 12.890312,85.884344 C 12.414289,85.408321 12.170528,84.79543 12.141521,84.174732 v -0.240696 c 0.02903,-0.620698 0.272768,-1.233787 0.748791,-1.709809 l 13.5811,-13.581101 h 11.849501 c 1.346295,0 2.43013,1.083834 2.430133,2.430133 z" />
    <ellipse
       style="opacity:0.8;fill:none;fill-rule:evenodd;stroke:#000000;stroke-width:1.13975;stroke-dasharray:none;paint-order:normal"
       id="ellipse81"
       cx="-73.404999"
       cy="-36.041855"
       rx="1.4841993"
       ry="1.583146"
       transform="matrix(0,-1,-1,0,0,0)" />
    <g
       id="g91"
       transform="matrix(0.18006132,0.18006132,0.18006132,-0.18006132,11.076169,82.947836)">
      <path
         style="fill:#800000;stroke:none"
         d="M 32.25,33 H 12.75 C 12.3358,33 12,32.6642 12,32.25 V 12.75 C 12,12.3358 12.3358,12 12.75,12 h 19.5 c 0.4142,0 0.75,0.3358 0.75,0.75 v 19.5 C 33,32.6642 32.6642,33 32.25,33 Z M 30,29.25 V 15.75 C 30,15.3358 29.6642,15 29.25,15 H 15.75 C 15.3358,15 15,15.3358 15,15.75 v 13.5 c 0,0.4142 0.3358,0.75 0.75,0.75 h 13.5 C 29.6642,30 30,29.6642 30,29.25 Z M 26.25,27 h -7.5 C 18.3358,27 18,26.6642 18,26.25 v -7.5 C 18,18.3358 18.3358,18 18.75,18 h 7.5 c 0.4142,0 0.75,0.3358 0.75,0.75 v 7.5 C 27,26.6642 26.6642,27 26.25,27 Z"
         id="path82" />
      <path
         style="fill:#800000;stroke:none"
         d="M 74.25,33 H 54.75 C 54.3358,33 54,32.6642 54,32.25 V 12.75 C 54,12.3358 54.3358,12 54.75,12 h 19.5 c 0.4142,0 0.75,0.3358 0.75,0.75 v 19.5 C 75,32.6642 74.6642,33 74.25,33 Z M 72,29.25 V 15.75 C 72,15.3358 71.6642,15 71.25,15 H 57.75 C 57.3358,15 57,15.3358 57,15.75 v 13.5 c 0,0.4142 0.3358,0.75 0.75,0.75 h 13.5 C 71.6642,30 72,29.6642 72,29.25 Z M 68.25,27 h -7.5 C 60.3358,27 60,26.6642 60,26.25 v -7.5 C 60,18.3358 60.3358,18 60.75,18 h 7.5 c 0.4142,0 0.75,0.3358 0.75,0.75 v 7.5 C 69,26.6642 68.6642,27 68.25,27 Z"
         id="path83" />
      <path
         style="fill:#000000;stroke:none"
         d="m 20.25,51 h -7.5 C 12.3358,51 12,50.6642 12,50.25 v -7.5 C 12,42.3358 12.3358,42 12.75,42 h 1.5 c 0.4142,0 0.75,0.3358 0.75,0.75 v 1.5 C 15,44.6642 15.3358,45 15.75,45 H 18 v 2.25 c 0,0.4142 0.3358,0.75 0.75,0.75 h 1.5 c 0.4142,0 0.75,0.3358 0.75,0.75 v 1.5 C 21,50.6642 20.6642,51 20.25,51 Z m 0,-6 H 18 V 42.75 C 18,42.3358 18.3358,42 18.75,42 h 1.5 c 0.4142,0 0.75,0.3358 0.75,0.75 v 1.5 C 21,44.6642 20.6642,45 20.25,45 Z"
         id="path84" />
      <path
         style="fill:#000000;stroke:none"
         d="m 71.25,51 h -7.5 C 63.3358,51 63,50.6642 63,50.25 v -1.5 C 63,48.3358 63.3358,48 63.75,48 h 4.5 C 68.6642,48 69,47.6642 69,47.25 v -1.5 C 69,45.3358 68.6642,45 68.25,45 h -1.5 C 66.3358,45 66,44.6642 66,44.25 v -1.5 C 66,42.3358 65.6642,42 65.25,42 h -1.5 C 63.3358,42 63,41.6642 63,41.25 v -4.5 C 63,36.3358 63.3358,36 63.75,36 h 1.5 c 0.4142,0 0.75,0.3358 0.75,0.75 v 1.5 c 0,0.4142 0.3358,0.75 0.75,0.75 h 1.5 C 68.6642,39 69,38.6642 69,38.25 v -1.5 C 69,36.3358 69.3358,36 69.75,36 h 1.5 c 0.4142,0 0.75,0.3358 0.75,0.75 v 1.5 c 0,0.4142 0.3358,0.75 0.75,0.75 h 1.5 c 0.4142,0 0.75,0.3358 0.75,0.75 v 1.5 C 75,41.6642 74.6642,42 74.25,42 h -1.5 C 72.3358,42 72,42.3358 72,42.75 v 1.5 c 0,0.4142 0.3358,0.75 0.75,0.75 h 1.5 c 0.4142,0 0.75,0.3358 0.75,0.75 v 1.5 C 75,47.6642 74.6642,48 74.25,48 h -1.5 C 72.3358,48 72,48.3358 72,48.75 v 1.5 C 72,50.6642 71.6642,51 71.25,51 Z"
         id="path85" />
      <path
         style="fill:#000000;stroke:none"
         d="m 68.25,63 h -1.5 C 66.3358,63 66,62.6642 66,62.25 v -1.5 C 66,60.3358 66.3358,60 66.75,60 H 69 v 2.25 C 69,62.6642 68.6642,63 68.25,63 Z m 6,-3 H 69 V 54.75 C 69,54.3358 69.3358,54 69.75,54 h 4.5 c 0.4142,0 0.75,0.3358 0.75,0.75 v 4.5 C 75,59.6642 74.6642,60 74.25,60 Z"
         id="path86" />
      <path
         style="fill:#000000;stroke:none"
         d="m 68.25,69 h -4.5 C 63.3358,69 63,68.6642 63,68.25 v -1.5 C 63,66.3358 63.3358,66 63.75,66 h 4.5 c 0.4142,0 0.75,0.3358 0.75,0.75 v 1.5 C 69,68.6642 68.6642,69 68.25,69 Z"
         id="path87" />
      <path
         style="fill:#000000;stroke:none"
         d="m 74.25,72 h -1.5 C 72.3358,72 72,71.6642 72,71.25 v -1.5 C 72,69.3358 72.3358,69 72.75,69 h 1.5 c 0.4142,0 0.75,0.3358 0.75,0.75 v 1.5 C 75,71.6642 74.6642,72 74.25,72 Z"
         id="path88" />
      <path
         style="fill:#800000;stroke:none"
         d="M 32.25,75 H 12.75 C 12.3358,75 12,74.6642 12,74.25 V 54.75 C 12,54.3358 12.3358,54 12.75,54 h 19.5 c 0.4142,0 0.75,0.3358 0.75,0.75 v 19.5 C 33,74.6642 32.6642,75 32.25,75 Z M 30,71.25 V 57.75 C 30,57.3358 29.6642,57 29.25,57 H 15.75 C 15.3358,57 15,57.3358 15,57.75 v 13.5 c 0,0.4142 0.3358,0.75 0.75,0.75 h 13.5 C 29.6642,72 30,71.6642 30,71.25 Z M 26.25,69 h -7.5 C 18.3358,69 18,68.6642 18,68.25 v -7.5 C 18,60.3358 18.3358,60 18.75,60 h 7.5 c 0.4142,0 0.75,0.3358 0.75,0.75 v 7.5 C 27,68.6642 26.6642,69 26.25,69 Z"
         id="path89" />
      <path
         style="fill:#000000;stroke:none"
         d="m 50.25,75 h -1.5 C 48.3358,75 48,74.6642 48,74.25 v -1.5 C 48,72.3358 47.6642,72 47.25,72 h -1.5 C 45.3358,72 45,71.6642 45,71.25 v -1.5 C 45,69.3358 45.3358,69 45.75,69 h 1.5 C 47.6642,69 48,68.6642 48,68.25 v -1.5 C 48,66.3358 47.6642,66 47.25,66 h -1.5 C 45.3358,66 45,65.6642 45,65.25 v -4.5 C 45,60.3358 45.3358,60 45.75,60 h 1.5 c 0.4142,0 0.75,0.3358 0.75,0.75 v 1.5 c 0,0.4142 0.3358,0.75 0.75,0.75 h 1.5 C 50.6642,63 51,62.6642 51,62.25 v -1.5 C 51,60.3358 51.3358,60 51.75,60 h 1.5 c 0.4142,0 0.75,0.3358 0.75,0.75 v 1.5 C 54,62.6642 54.3358,63 54.75,63 H 60 v 5.25 C 60,68.6642 59.6642,69 59.25,69 h -1.5 C 57.3358,69 57,69.3358 57,69.75 v 1.5 C 57,71.6642 56.6642,72 56.25,72 h -4.5 C 51.3358,72 51,72.3358 51,72.75 v 1.5 C 51,74.6642 50.6642,75 50.25,75 Z M 54,68.25 v -1.5 C 54,66.3358 53.6642,66 53.25,66 h -1.5 C 51.3358,66 51,66.3358 51,66.75 v 1.5 c 0,0.4142 0.3358,0.75 0.75,0.75 h 1.5 C 53.6642,69 54,68.6642 54,68.25 Z M 62.25,63 H 60 V 60.75 C 60,60.3358 59.6642,60 59.25,60 h -1.5 C 57.3358,60 57,59.6642 57,59.25 v -1.5 C 57,57.3358 57.3358,57 57.75,57 h 1.5 C 59.6642,57 60,56.6642 60,56.25 V 54 h 2.25 c 0.4142,0 0.75,0.3358 0.75,0.75 v 7.5 C 63,62.6642 62.6642,63 62.25,63 Z m -3,-9 h -1.5 C 57.3358,54 57,53.6642 57,53.25 V 48 h 2.25 C 59.6642,48 60,48.3358 60,48.75 V 54 Z m -18,21 h -4.5 C 36.3358,75 36,74.6642 36,74.25 V 60.75 C 36,60.3358 36.3358,60 36.75,60 h 1.5 C 38.6642,60 39,59.6642 39,59.25 v -1.5 C 39,57.3358 38.6642,57 38.25,57 h -1.5 C 36.3358,57 36,56.6642 36,56.25 v -7.5 C 36,48.3358 36.3358,48 36.75,48 h 1.5 C 38.6642,48 39,47.6642 39,47.25 v -1.5 C 39,45.3358 38.6642,45 38.25,45 h -7.5 C 30.3358,45 30,44.6642 30,44.25 V 42 h 2.25 C 32.6642,42 33,41.6642 33,41.25 v -1.5 C 33,39.3358 32.6642,39 32.25,39 H 30 V 36.75 C 30,36.3358 30.3358,36 30.75,36 H 39 v 2.25 C 39,38.6642 38.6642,39 38.25,39 h -1.5 C 36.3358,39 36,39.3358 36,39.75 v 1.5 c 0,0.4142 0.3358,0.75 0.75,0.75 h 4.5 c 0.4142,0 0.75,0.3358 0.75,0.75 v 1.5 c 0,0.4142 0.3358,0.75 0.75,0.75 h 4.5 C 47.6642,45 48,44.6642 48,44.25 v -1.5 C 48,42.3358 47.6642,42 47.25,42 h -1.5 C 45.3358,42 45,41.6642 45,41.25 v -4.5 C 45,36.3358 45.3358,36 45.75,36 h 1.5 c 0.4142,0 0.75,0.3358 0.75,0.75 v 1.5 c 0,0.4142 0.3358,0.75 0.75,0.75 h 1.5 C 50.6642,39 51,38.6642 51,38.25 v -1.5 C 51,36.3358 51.3358,36 51.75,36 h 1.5 c 0.4142,0 0.75,0.3358 0.75,0.75 v 1.5 C 54,38.6642 54.3358,39 54.75,39 H 57 v 2.25 c 0,0.4142 0.3358,0.75 0.75,0.75 h 1.5 c 0.4142,0 0.75,0.3358 0.75,0.75 v 1.5 C 60,44.6642 59.6642,45 59.25,45 h -1.5 C 57.3358,45 57,45.3358 57,45.75 V 48 H 51.75 C 51.3358,48 51,48.3358 51,48.75 V 54 H 48 V 48.75 C 48,48.3358 47.6642,48 47.25,48 h -4.5 C 42.3358,48 42,48.3358 42,48.75 v 4.5 C 42,53.6642 42.3358,54 42.75,54 H 48 v 2.25 C 48,56.6642 47.6642,57 47.25,57 h -4.5 C 42.3358,57 42,57.3358 42,57.75 v 4.5 C 42,62.6642 41.6642,63 41.25,63 h -1.5 C 39.3358,63 39,63.3358 39,63.75 v 7.5 c 0,0.4142 0.3358,0.75 0.75,0.75 h 1.5 c 0.4142,0 0.75,0.3358 0.75,0.75 v 1.5 C 42,74.6642 41.6642,75 41.25,75 Z m 12,-18 h -1.5 C 51.3358,57 51,56.6642 51,56.25 V 54 h 2.25 c 0.4142,0 0.75,0.3358 0.75,0.75 v 1.5 C 54,56.6642 53.6642,57 53.25,57 Z m -27,-9 h -1.5 C 24.3358,48 24,47.6642 24,47.25 v -7.5 C 24,39.3358 23.6642,39 23.25,39 H 12.75 C 12.3358,39 12,38.6642 12,38.25 v -1.5 C 12,36.3358 12.3358,36 12.75,36 h 13.5 c 0.4142,0 0.75,0.3358 0.75,0.75 v 1.5 C 27,38.6642 27.3358,39 27.75,39 H 30 v 3 H 27.75 C 27.3358,42 27,42.3358 27,42.75 V 48 Z M 54,44.25 v -1.5 C 54,42.3358 53.6642,42 53.25,42 h -1.5 C 51.3358,42 51,42.3358 51,42.75 v 1.5 c 0,0.4142 0.3358,0.75 0.75,0.75 h 1.5 C 53.6642,45 54,44.6642 54,44.25 Z M 59.25,39 H 57 V 36.75 C 57,36.3358 57.3358,36 57.75,36 h 1.5 c 0.4142,0 0.75,0.3358 0.75,0.75 v 1.5 C 60,38.6642 59.6642,39 59.25,39 Z m -18,-3 H 39 v -3 h 3 v 2.25 C 42,35.6642 41.6642,36 41.25,36 Z m -9,15 h -4.5 C 27.3358,51 27,50.6642 27,50.25 V 48 h 5.25 c 0.4142,0 0.75,0.3358 0.75,0.75 v 1.5 C 33,50.6642 32.6642,51 32.25,51 Z m 12,-18 H 42 V 30.75 C 42,30.3358 42.3358,30 42.75,30 H 45 v 2.25 C 45,32.6642 44.6642,33 44.25,33 Z m -6,0 h -1.5 C 36.3358,33 36,32.6642 36,32.25 v -4.5 C 36,27.3358 36.3358,27 36.75,27 H 39 v 6 z m 9,-3 H 45 V 27.75 C 45,27.3358 45.3358,27 45.75,27 H 48 v 3 z m -6,-3 H 39 V 24.75 C 39,24.3358 38.6642,24 38.25,24 h -1.5 C 36.3358,24 36,23.6642 36,23.25 v -1.5 C 36,21.3358 36.3358,21 36.75,21 H 42 v 5.25 C 42,26.6642 41.6642,27 41.25,27 Z m 9,6 h -1.5 C 48.3358,33 48,32.6642 48,32.25 V 30 h 2.25 c 0.4142,0 0.75,0.3358 0.75,0.75 v 1.5 C 51,32.6642 50.6642,33 50.25,33 Z m 0,-6 H 48 V 21.75 C 48,21.3358 47.6642,21 47.25,21 H 42 V 18.75 C 42,18.3358 41.6642,18 41.25,18 h -4.5 C 36.3358,18 36,17.6642 36,17.25 v -1.5 C 36,15.3358 36.3358,15 36.75,15 h 4.5 C 41.6642,15 42,14.6642 42,14.25 v -1.5 C 42,12.3358 42.3358,12 42.75,12 h 7.5 c 0.4142,0 0.75,0.3358 0.75,0.75 v 13.5 C 51,26.6642 50.6642,27 50.25,27 Z M 48,17.25 v -1.5 C 48,15.3358 47.6642,15 47.25,15 h -1.5 C 45.3358,15 45,15.3358 45,15.75 v 1.5 c 0,0.4142 0.3358,0.75 0.75,0.75 h 1.5 C 47.6642,18 48,17.6642 48,17.25 Z"
         id="path90" />
      <path
         style="fill:#000000;stroke:none"
         d="m 68.25,75 h -7.5 C 60.3358,75 60,74.6642 60,74.25 v -1.5 C 60,72.3358 60.3358,72 60.75,72 h 7.5 c 0.4142,0 0.75,0.3358 0.75,0.75 v 1.5 C 69,74.6642 68.6642,75 68.25,75 Z"
         id="path91" />
    </g>
    <path
       style="fill:none;stroke:#000000;stroke-width:0.100519px;stroke-linecap:butt;stroke-linejoin:miter;stroke-opacity:1"
       d="M 40.776087,68.643126 Z"
       id="path93" />
  </g>
  <text
     xml:space="preserve"
     style="font-style:normal;font-variant:normal;font-weight:normal;font-stretch:normal;font-size:5.27836px;line-height:1.25;font-family:'Century Gothic';-inkscape-font-specification:'Century Gothic, Normal';font-variant-ligatures:normal;font-variant-caps:normal;font-variant-numeric:normal;font-variant-east-asian:normal;stroke-width:0.247423"
     x="12.165316"
     y="55.609947"
     id="text97"
     transform="scale(0.93514337,1.0693547)"><tspan
       sodipodi:role="line"
       id="tspan97"
       x="12.165316"
       y="55.609947"
       style="font-style:normal;font-variant:normal;font-weight:normal;font-stretch:normal;font-size:5.27836px;font-family:'Century Gothic';-inkscape-font-specification:'Century Gothic, Normal';font-variant-ligatures:normal;font-variant-caps:normal;font-variant-numeric:normal;font-variant-east-asian:normal;stroke-width:0.247423">Persistent Identifiers for FAIR data in Catalysis</tspan></text>
  <g
     id="g1"
     transform="matrix(0.82254694,0,0,0.82254694,2.0534569,9.0780904)">
    <rect
       style="opacity:0.8;fill:#2ca05a;fill-rule:evenodd;stroke:#2ca05a;stroke-width:1.13975;stroke-dasharray:none;paint-order:stroke fill markers"
       id="rect53"
       width="28.609341"
       height="28.609341"
       x="12.141706"
       y="21.95326"
       ry="2.4301369" />
    <path
       id="path54"
       style="opacity:0.9;fill:#f9f9f9;fill-rule:evenodd;stroke:#28220b;stroke-width:1.13975;stroke-linecap:butt;stroke-linejoin:round;stroke-dasharray:none;paint-order:normal"
       d="m 26.471805,21.978299 -13.581488,13.5813 c -0.476015,0.476011 -0.719579,1.088933 -0.748593,1.709612 v 0.240699 c 0.02903,0.620695 0.272567,1.233784 0.748589,1.70981 l 10.619515,10.619314 c 0.476023,0.476022 1.088914,0.719784 1.709612,0.74879 h 0.240696 c 0.620698,-0.02902 1.233787,-0.272768 1.709809,-0.74879 L 40.751046,36.257933 V 24.408432 c 0,-1.346295 -1.083834,-2.430129 -2.430133,-2.430133 z" />
    <ellipse
       style="opacity:0.8;fill:none;fill-rule:evenodd;stroke:#000000;stroke-width:1.13975;stroke-dasharray:none;paint-order:normal"
       id="ellipse54"
       cx="35.989174"
       cy="26.687489"
       rx="1.4841993"
       ry="1.583146" />
    <path
       style="fill:none;stroke:#000000;stroke-width:0.100519px;stroke-linecap:butt;stroke-linejoin:miter;stroke-opacity:1"
       d="M 40.751046,21.953259 Z"
       id="path66" />
    <g
       id="g111"
       transform="rotate(-45,70.431816,63.64007)">
      <path
         style="fill:#0055d4;stroke:none;stroke-width:0.254645"
         d="m 56.02746,10.688289 h -4.965579 c -0.105476,0 -0.190983,-0.08551 -0.190983,-0.190984 V 5.5317236 c 0,-0.1054737 0.08551,-0.1909835 0.190983,-0.1909835 h 4.965579 c 0.105476,0 0.190984,0.08551 0.190984,0.1909835 v 4.9655814 c 0,0.105474 -0.08551,0.190984 -0.190984,0.190984 z M 55.45451,9.7333692 V 6.2956591 c 0,-0.105474 -0.08551,-0.1909838 -0.190984,-0.1909838 h -3.437711 c -0.105472,0 -0.190983,0.08551 -0.190983,0.1909838 v 3.4377101 c 0,0.105474 0.08551,0.1909839 0.190983,0.1909839 h 3.437711 c 0.105472,0 0.190984,-0.08551 0.190984,-0.1909839 z M 54.499588,9.1604175 h -1.909839 c -0.105472,0 -0.190983,-0.08551 -0.190983,-0.1909839 V 7.0595947 c 0,-0.105474 0.08551,-0.1909839 0.190983,-0.1909839 h 1.909839 c 0.105476,0 0.190984,0.08551 0.190984,0.1909839 v 1.9098389 c 0,0.1054741 -0.08551,0.1909839 -0.190984,0.1909839 z"
         id="path102" />
      <path
         style="fill:#0055d4;stroke:none;stroke-width:0.254645"
         d="m 66.72256,10.688289 h -4.965583 c -0.105472,0 -0.190983,-0.08551 -0.190983,-0.190984 V 5.5317236 c 0,-0.1054737 0.08551,-0.1909835 0.190983,-0.1909835 h 4.965583 c 0.105472,0 0.190983,0.08551 0.190983,0.1909835 v 4.9655814 c 0,0.105474 -0.08551,0.190984 -0.190983,0.190984 z M 66.149605,9.7333692 V 6.2956591 c 0,-0.105474 -0.08551,-0.1909838 -0.190983,-0.1909838 h -3.437711 c -0.105472,0 -0.190983,0.08551 -0.190983,0.1909838 v 3.4377101 c 0,0.105474 0.08551,0.1909839 0.190983,0.1909839 h 3.437711 c 0.105476,0 0.190983,-0.08551 0.190983,-0.1909839 z M 65.194688,9.1604175 h -1.909839 c -0.105476,0 -0.190984,-0.08551 -0.190984,-0.1909839 V 7.0595947 c 0,-0.105474 0.08551,-0.1909839 0.190984,-0.1909839 h 1.909839 c 0.105472,0 0.190983,0.08551 0.190983,0.1909839 v 1.9098389 c 0,0.1054741 -0.08551,0.1909839 -0.190983,0.1909839 z"
         id="path103" />
      <path
         style="fill:#000000;stroke:none;stroke-width:0.254645"
         d="m 52.97172,15.271902 h -1.909839 c -0.105476,0 -0.190983,-0.08551 -0.190983,-0.190984 v -1.909839 c 0,-0.105474 0.08551,-0.190984 0.190983,-0.190984 h 0.381967 c 0.105473,0 0.190984,0.08551 0.190984,0.190984 v 0.381968 c 0,0.105474 0.08551,0.190984 0.190983,0.190984 h 0.572951 v 0.572951 c 0,0.105474 0.08551,0.190984 0.190983,0.190984 h 0.381971 c 0.105472,0 0.190984,0.08551 0.190984,0.190984 v 0.381968 c 0,0.105474 -0.08551,0.190984 -0.190984,0.190984 z m 0,-1.527871 h -0.572954 v -0.572952 c 0,-0.105474 0.08551,-0.190984 0.190983,-0.190984 h 0.381971 c 0.105472,0 0.190984,0.08551 0.190984,0.190984 v 0.381968 c 0,0.105474 -0.08551,0.190984 -0.190984,0.190984 z"
         id="path104" />
      <path
         style="fill:#000000;stroke:none;stroke-width:0.254645"
         d="m 65.958622,15.271902 h -1.909839 c -0.105472,0 -0.190984,-0.08551 -0.190984,-0.190984 V 14.69895 c 0,-0.105474 0.08551,-0.190984 0.190984,-0.190984 h 1.145905 c 0.105472,0 0.190983,-0.08551 0.190983,-0.190984 v -0.381968 c 0,-0.105474 -0.08551,-0.190983 -0.190983,-0.190983 h -0.381967 c -0.105476,0 -0.190984,-0.08551 -0.190984,-0.190984 v -0.381968 c 0,-0.105474 -0.08551,-0.190984 -0.190987,-0.190984 h -0.381967 c -0.105472,0 -0.190984,-0.08551 -0.190984,-0.190984 v -1.145903 c 0,-0.105474 0.08551,-0.190984 0.190984,-0.190984 h 0.381967 c 0.105476,0 0.190987,0.08551 0.190987,0.190984 v 0.381968 c 0,0.105474 0.08551,0.190983 0.190984,0.190983 h 0.381967 c 0.105472,0 0.190983,-0.08551 0.190983,-0.190983 v -0.381968 c 0,-0.105474 0.08551,-0.190984 0.190984,-0.190984 h 0.381967 c 0.105476,0 0.190983,0.08551 0.190983,0.190984 v 0.381968 c 0,0.105474 0.08551,0.190983 0.190984,0.190983 h 0.381971 c 0.105472,0 0.190983,0.08551 0.190983,0.190984 v 0.381968 c 0,0.105474 -0.08551,0.190984 -0.190983,0.190984 h -0.381971 c -0.105472,0 -0.190984,0.08551 -0.190984,0.190984 v 0.381968 c 0,0.105474 0.08551,0.190984 0.190984,0.190984 h 0.381971 c 0.105472,0 0.190983,0.08551 0.190983,0.190983 v 0.381968 c 0,0.105474 -0.08551,0.190984 -0.190983,0.190984 h -0.381971 c -0.105472,0 -0.190984,0.08551 -0.190984,0.190984 v 0.381968 c 0,0.105474 -0.08551,0.190984 -0.190983,0.190984 z"
         id="path105" />
      <path
         style="fill:#000000;stroke:none;stroke-width:0.254645"
         d="m 65.194688,18.327644 h -0.381967 c -0.105476,0 -0.190984,-0.08551 -0.190984,-0.190984 v -0.381968 c 0,-0.105474 0.08551,-0.190984 0.190984,-0.190984 h 0.57295 v 0.572952 c 0,0.105474 -0.08551,0.190984 -0.190983,0.190984 z m 1.527872,-0.763936 h -1.336889 v -1.336887 c 0,-0.105474 0.08551,-0.190984 0.190984,-0.190984 h 1.145905 c 0.105472,0 0.190983,0.08551 0.190983,0.190984 v 1.145903 c 0,0.105475 -0.08551,0.190984 -0.190983,0.190984 z"
         id="path106" />
      <path
         style="fill:#000000;stroke:none;stroke-width:0.254645"
         d="m 65.194688,19.855515 h -1.145905 c -0.105472,0 -0.190984,-0.08551 -0.190984,-0.190984 v -0.381968 c 0,-0.105474 0.08551,-0.190984 0.190984,-0.190984 h 1.145905 c 0.105472,0 0.190983,0.08551 0.190983,0.190984 v 0.381968 c 0,0.105474 -0.08551,0.190984 -0.190983,0.190984 z"
         id="path107" />
      <path
         style="fill:#000000;stroke:none;stroke-width:0.254645"
         d="m 66.72256,20.61945 h -0.381971 c -0.105472,0 -0.190984,-0.08551 -0.190984,-0.190984 v -0.381967 c 0,-0.105474 0.08551,-0.190984 0.190984,-0.190984 h 0.381971 c 0.105472,0 0.190983,0.08551 0.190983,0.190984 v 0.381967 c 0,0.105474 -0.08551,0.190984 -0.190983,0.190984 z"
         id="path108" />
      <path
         style="fill:#0055d4;stroke:none;stroke-width:0.254645"
         d="m 56.02746,21.383386 h -4.965579 c -0.105476,0 -0.190983,-0.08551 -0.190983,-0.190984 v -4.965581 c 0,-0.105474 0.08551,-0.190984 0.190983,-0.190984 h 4.965579 c 0.105476,0 0.190984,0.08551 0.190984,0.190984 v 4.965581 c 0,0.105474 -0.08551,0.190984 -0.190984,0.190984 z m -0.57295,-0.95492 v -3.437709 c 0,-0.105474 -0.08551,-0.190984 -0.190984,-0.190984 h -3.437711 c -0.105472,0 -0.190983,0.08551 -0.190983,0.190984 v 3.437709 c 0,0.105474 0.08551,0.190984 0.190983,0.190984 h 3.437711 c 0.105472,0 0.190984,-0.08551 0.190984,-0.190984 z m -0.954922,-0.572951 h -1.909839 c -0.105472,0 -0.190983,-0.08551 -0.190983,-0.190984 v -1.909839 c 0,-0.105474 0.08551,-0.190984 0.190983,-0.190984 h 1.909839 c 0.105476,0 0.190984,0.08551 0.190984,0.190984 v 1.909839 c 0,0.105474 -0.08551,0.190984 -0.190984,0.190984 z"
         id="path109" />
      <path
         style="fill:#000000;stroke:none;stroke-width:0.254645"
         d="m 60.611072,21.383386 h -0.381967 c -0.105472,0 -0.190983,-0.08551 -0.190983,-0.190984 v -0.381968 c 0,-0.105474 -0.08551,-0.190984 -0.190984,-0.190984 h -0.381967 c -0.105476,0 -0.190983,-0.08551 -0.190983,-0.190984 v -0.381967 c 0,-0.105474 0.08551,-0.190984 0.190983,-0.190984 h 0.381967 c 0.105476,0 0.190984,-0.08551 0.190984,-0.190984 v -0.381968 c 0,-0.105474 -0.08551,-0.190984 -0.190984,-0.190984 h -0.381967 c -0.105476,0 -0.190983,-0.08551 -0.190983,-0.190984 v -1.145903 c 0,-0.105474 0.08551,-0.190984 0.190983,-0.190984 h 0.381967 c 0.105476,0 0.190984,0.08551 0.190984,0.190984 v 0.381968 c 0,0.105474 0.08551,0.190984 0.190983,0.190984 h 0.381967 c 0.105476,0 0.190987,-0.08551 0.190987,-0.190984 v -0.381968 c 0,-0.105474 0.08551,-0.190984 0.190984,-0.190984 h 0.381967 c 0.105472,0 0.190984,0.08551 0.190984,0.190984 v 0.381968 c 0,0.105474 0.08551,0.190984 0.190983,0.190984 h 1.336888 v 1.336887 c 0,0.105474 -0.08551,0.190984 -0.190983,0.190984 h -0.381971 c -0.105472,0 -0.190983,0.08551 -0.190983,0.190984 v 0.381967 c 0,0.105474 -0.08551,0.190984 -0.190984,0.190984 h -1.145901 c -0.105476,0 -0.190984,0.08551 -0.190984,0.190984 v 0.381968 c 0,0.105474 -0.08551,0.190984 -0.190987,0.190984 z m 0.954922,-1.718855 v -0.381968 c 0,-0.105474 -0.08551,-0.190984 -0.190984,-0.190984 h -0.381967 c -0.105476,0 -0.190984,0.08551 -0.190984,0.190984 v 0.381968 c 0,0.105474 0.08551,0.190984 0.190984,0.190984 h 0.381967 c 0.105472,0 0.190984,-0.08551 0.190984,-0.190984 z m 2.100822,-1.336887 h -0.572951 v -0.572952 c 0,-0.105474 -0.08551,-0.190984 -0.190983,-0.190984 h -0.381971 c -0.105472,0 -0.190983,-0.08551 -0.190983,-0.190984 v -0.381967 c 0,-0.105474 0.08551,-0.190984 0.190983,-0.190984 h 0.381971 c 0.105472,0 0.190983,-0.08551 0.190983,-0.190984 v -0.572952 h 0.572951 c 0.105476,0 0.190983,0.08551 0.190983,0.190984 v 1.909839 c 0,0.105474 -0.08551,0.190984 -0.190983,0.190984 z m -0.763934,-2.291807 h -0.381971 c -0.105472,0 -0.190983,-0.08551 -0.190983,-0.190984 v -1.336887 h 0.572954 c 0.105472,0 0.190983,0.08551 0.190983,0.190984 v 1.336887 z m -4.583616,5.347549 h -1.145901 c -0.105476,0 -0.190983,-0.08551 -0.190983,-0.190984 v -3.43771 c 0,-0.105474 0.08551,-0.190984 0.190983,-0.190984 h 0.381967 c 0.105472,0 0.190984,-0.08551 0.190984,-0.190984 v -0.381967 c 0,-0.105474 -0.08551,-0.190984 -0.190984,-0.190984 h -0.381967 c -0.105476,0 -0.190983,-0.08551 -0.190983,-0.190984 V 14.69895 c 0,-0.105474 0.08551,-0.190984 0.190983,-0.190984 h 0.381967 c 0.105472,0 0.190984,-0.08551 0.190984,-0.190984 v -0.381968 c 0,-0.105474 -0.08551,-0.190983 -0.190984,-0.190983 h -1.909839 c -0.105476,0 -0.190983,-0.08551 -0.190983,-0.190984 v -0.572952 h 0.57295 c 0.105476,0 0.190984,-0.08551 0.190984,-0.190984 v -0.381968 c 0,-0.105474 -0.08551,-0.190984 -0.190984,-0.190984 h -0.57295 v -0.572951 c 0,-0.105474 0.08551,-0.190984 0.190983,-0.190984 h 2.100823 v 0.572952 c 0,0.105474 -0.08551,0.190983 -0.190984,0.190983 h -0.381967 c -0.105476,0 -0.190983,0.08551 -0.190983,0.190984 v 0.381968 c 0,0.105474 0.08551,0.190984 0.190983,0.190984 h 1.145901 c 0.105476,0 0.190984,0.08551 0.190984,0.190984 v 0.381968 c 0,0.105474 0.08551,0.190984 0.190987,0.190984 h 1.145901 c 0.105476,0 0.190984,-0.08551 0.190984,-0.190984 v -0.381968 c 0,-0.105474 -0.08551,-0.190984 -0.190984,-0.190984 h -0.381967 c -0.105476,0 -0.190983,-0.08551 -0.190983,-0.190984 v -1.145903 c 0,-0.105474 0.08551,-0.190984 0.190983,-0.190984 h 0.381967 c 0.105476,0 0.190984,0.08551 0.190984,0.190984 v 0.381968 c 0,0.105474 0.08551,0.190983 0.190983,0.190983 h 0.381967 c 0.105476,0 0.190987,-0.08551 0.190987,-0.190983 v -0.381968 c 0,-0.105474 0.08551,-0.190984 0.190984,-0.190984 h 0.381967 c 0.105472,0 0.190984,0.08551 0.190984,0.190984 v 0.381968 c 0,0.105474 0.08551,0.190983 0.190983,0.190983 h 0.572951 v 0.572952 c 0,0.105474 0.08551,0.190984 0.190983,0.190984 h 0.381971 c 0.105472,0 0.190983,0.08551 0.190983,0.190984 v 0.381968 c 0,0.105474 -0.08551,0.190984 -0.190983,0.190984 h -0.381971 c -0.105472,0 -0.190983,0.08551 -0.190983,0.190983 v 0.572952 h -1.336885 c -0.105476,0 -0.190984,0.08551 -0.190984,0.190984 v 1.336887 H 60.038122 V 14.69895 c 0,-0.105474 -0.08551,-0.190984 -0.190984,-0.190984 h -1.145901 c -0.105476,0 -0.190987,0.08551 -0.190987,0.190984 v 1.145903 c 0,0.105474 0.08551,0.190984 0.190987,0.190984 h 1.336885 v 0.572952 c 0,0.105474 -0.08551,0.190984 -0.190984,0.190984 h -1.145901 c -0.105476,0 -0.190987,0.08551 -0.190987,0.190984 v 1.145903 c 0,0.105474 -0.08551,0.190984 -0.190984,0.190984 h -0.381967 c -0.105472,0 -0.190983,0.08551 -0.190983,0.190983 v 1.909839 c 0,0.105474 0.08551,0.190984 0.190983,0.190984 h 0.381967 c 0.105476,0 0.190984,0.08551 0.190984,0.190984 v 0.381968 c 0,0.105474 -0.08551,0.190984 -0.190984,0.190984 z m 3.055744,-4.583613 h -0.381967 c -0.105476,0 -0.190984,-0.08551 -0.190984,-0.190984 v -0.572952 h 0.572951 c 0.105472,0 0.190984,0.08551 0.190984,0.190984 v 0.381968 c 0,0.105474 -0.08551,0.190984 -0.190984,0.190984 z m -6.875422,-2.291807 h -0.381967 c -0.105472,0 -0.190983,-0.08551 -0.190983,-0.190984 v -1.909839 c 0,-0.105474 -0.08551,-0.190984 -0.190984,-0.190984 h -2.673773 c -0.105476,0 -0.190983,-0.08551 -0.190983,-0.190983 v -0.381968 c 0,-0.105474 0.08551,-0.190984 0.190983,-0.190984 h 3.437707 c 0.105476,0 0.190984,0.08551 0.190984,0.190984 v 0.381968 c 0,0.105474 0.08551,0.190983 0.190987,0.190983 h 0.572951 v 0.763936 h -0.572951 c -0.105476,0 -0.190987,0.08551 -0.190987,0.190984 v 1.336887 z m 7.066406,-0.954919 v -0.381968 c 0,-0.105474 -0.08551,-0.190984 -0.190984,-0.190984 h -0.381967 c -0.105476,0 -0.190984,0.08551 -0.190984,0.190984 v 0.381968 c 0,0.105474 0.08551,0.190984 0.190984,0.190984 h 0.381967 c 0.105472,0 0.190984,-0.08551 0.190984,-0.190984 z m 1.336888,-1.336888 h -0.572954 v -0.572951 c 0,-0.105474 0.08551,-0.190984 0.190983,-0.190984 h 0.381971 c 0.105472,0 0.190983,0.08551 0.190983,0.190984 v 0.381968 c 0,0.105474 -0.08551,0.190983 -0.190983,0.190983 z m -4.583616,-0.763935 h -0.57295 v -0.763935 h 0.763934 v 0.572951 c 0,0.105474 -0.08551,0.190984 -0.190984,0.190984 z m -2.291806,3.819678 h -1.145901 c -0.105476,0 -0.190987,-0.08551 -0.190987,-0.190984 v -0.572952 h 1.336888 c 0.105476,0 0.190984,0.08551 0.190984,0.190984 v 0.381968 c 0,0.105474 -0.08551,0.190984 -0.190984,0.190984 z m 3.055744,-4.583613 H 58.51025 v -0.572952 c 0,-0.105474 0.08551,-0.1909839 0.190987,-0.1909839 h 0.572951 v 0.5729519 c 0,0.105474 -0.08551,0.190984 -0.190984,0.190984 z m -1.527872,0 h -0.381967 c -0.105476,0 -0.190983,-0.08551 -0.190983,-0.190984 V 9.3514014 c 0,-0.105474 0.08551,-0.1909839 0.190983,-0.1909839 h 0.572951 v 1.5278715 z m 2.291806,-0.7639359 h -0.57295 V 9.3514014 c 0,-0.105474 0.08551,-0.1909839 0.190983,-0.1909839 h 0.572951 V 9.9243531 Z M 58.319266,9.1604175 h -0.57295 V 8.5874658 c 0,-0.105474 -0.08551,-0.1909838 -0.190984,-0.1909838 h -0.381967 c -0.105476,0 -0.190983,-0.08551 -0.190983,-0.1909839 V 7.8235303 c 0,-0.1054741 0.08551,-0.1909839 0.190983,-0.1909839 h 1.336885 v 1.3368872 c 0,0.1054741 -0.08551,0.1909839 -0.190984,0.1909839 z m 2.291806,1.5278715 h -0.381967 c -0.105472,0 -0.190983,-0.08551 -0.190983,-0.190984 V 9.9243531 h 0.57295 c 0.105476,0 0.190987,0.08551 0.190987,0.1909839 v 0.381968 c 0,0.105474 -0.08551,0.190984 -0.190987,0.190984 z m 0,-1.5278715 h -0.57295 V 7.8235303 c 0,-0.1054741 -0.08551,-0.1909839 -0.190984,-0.1909839 H 58.51025 V 7.0595947 c 0,-0.105474 -0.08551,-0.1909839 -0.190984,-0.1909839 h -1.145901 c -0.105476,0 -0.190983,-0.08551 -0.190983,-0.1909839 V 6.2956591 c 0,-0.105474 0.08551,-0.1909838 0.190983,-0.1909838 h 1.145901 c 0.105476,0 0.190984,-0.08551 0.190984,-0.1909839 V 5.5317236 c 0,-0.1054737 0.08551,-0.1909835 0.190987,-0.1909835 h 1.909835 c 0.105476,0 0.190987,0.08551 0.190987,0.1909835 v 3.43771 c 0,0.1054741 -0.08551,0.1909839 -0.190987,0.1909839 z M 60.038122,6.6776269 V 6.2956591 c 0,-0.105474 -0.08551,-0.1909838 -0.190984,-0.1909838 h -0.381967 c -0.105476,0 -0.190983,0.08551 -0.190983,0.1909838 v 0.3819678 c 0,0.1054741 0.08551,0.1909839 0.190983,0.1909839 h 0.381967 c 0.105476,0 0.190984,-0.08551 0.190984,-0.1909839 z"
         id="path110" />
      <path
         style="fill:#000000;stroke:none;stroke-width:0.254645"
         d="m 65.194688,21.383386 h -1.909839 c -0.105476,0 -0.190984,-0.08551 -0.190984,-0.190984 v -0.381968 c 0,-0.105474 0.08551,-0.190984 0.190984,-0.190984 h 1.909839 c 0.105472,0 0.190983,0.08551 0.190983,0.190984 v 0.381968 c 0,0.105474 -0.08551,0.190984 -0.190983,0.190984 z"
         id="path111" />
    </g>
  </g>
  <text
     xml:space="preserve"
     style="font-style:normal;font-variant:normal;font-weight:normal;font-stretch:normal;font-size:5.27836px;line-height:1.25;font-family:'Century Gothic';-inkscape-font-specification:'Century Gothic, Normal';font-variant-ligatures:normal;font-variant-caps:normal;font-variant-numeric:normal;font-variant-east-asian:normal;stroke-width:0.247423"
     x="12.165316"
     y="98.596245"
     id="text2"
     transform="scale(0.93514339,1.0693547)"><tspan
       sodipodi:role="line"
       id="tspan2"
       x="12.165316"
       y="98.596245"
       style="font-style:normal;font-variant:normal;font-weight:normal;font-stretch:normal;font-size:5.27836px;font-family:'Century Gothic';-inkscape-font-specification:'Century Gothic, Normal';font-variant-ligatures:normal;font-variant-caps:normal;font-variant-numeric:normal;font-variant-east-asian:normal;stroke-width:0.247423">Persistent Identifiers for FAIR data in Catalysis</tspan></text>
</svg>
